<?xml version="1.0" encoding="utf-8"?>
<!-- Generator: Adobe Illustrator 25.2.1, SVG Export Plug-In . SVG Version: 6.00 Build 0)  -->
<svg version="1.1"
  xmlns="http://www.w3.org/2000/svg"
  xmlns:xlink="http://www.w3.org/1999/xlink" x="0px" y="0px" viewBox="0 0 302 92" style="enable-background:new 0 0 302 92;" xml:space="preserve">
  <style type="text/css">
	.st0{fill:#363636;}
  </style>
  <path class="st0" d="M58.4,39.6c1.2,1.7,1.7,11.2,1.6,19.9c-11.3-2.7-25-6.5-26.7-8c-1.2-1.7-1.7-11.2-1.6-19.9
	C43.1,34.3,56.7,38.2,58.4,39.6 M45.9,2.2c24.2,0,43.8,19.6,43.8,43.8c0,24.2-19.6,43.8-43.8,43.8C21.7,89.8,2.1,70.2,2.1,46
	C2.1,21.8,21.7,2.2,45.9,2.2 M75.4,62.2c2.2-2,2.2-32.3,0-35.4c-2.8-2.4-39.3-11.6-42.1-10.6c-1,0.9-1.5,7.9-1.6,15.4
	c-7.7-1.8-14.3-3.1-15.4-2.7c-2.2,2-2.2,32.3,0,35.4c2.8,2.4,39.3,11.6,42.1,10.6c1-0.9,1.5-7.9,1.6-15.4
	C67.7,61.3,74.3,62.6,75.4,62.2 M163.6,21.2c10.7,0,19.1,5.8,19.1,20.7v7.7c0,15-8.5,20.7-19.1,20.7c-10.7,0-19.1-5.8-19.1-20.7
	v-7.7C144.4,26.9,152.9,21.2,163.6,21.2 M171.6,41.9c0-7.8-2.6-11-8-11c-5.4,0-7.9,3.3-7.9,11v7.7c0,7.8,2.5,11,7.9,11
	c5.4,0,8-3.3,8-11V41.9z M140.6,21.8h-32.1c-0.7,0-1.3,0.5-1.3,1.2v6.7c0,0.7,0.6,1.2,1.3,1.2H119v37.6c0,0.7,0.6,1.3,1.3,1.3h8.5
	c0.7,0,1.3-0.6,1.3-1.3V30.9h10.5c0.7,0,1.4-0.5,1.4-1.2V23C141.9,22.3,141.3,21.8,140.6,21.8 M218.6,21.8h-32.1
	c-0.7,0-1.3,0.5-1.3,1.2v6.7c0,0.7,0.6,1.2,1.3,1.2H197v37.6c0,0.7,0.6,1.3,1.3,1.3h8.5c0.7,0,1.3-0.6,1.3-1.3V30.9h10.5
	c0.7,0,1.4-0.5,1.4-1.2V23C219.9,22.3,219.3,21.8,218.6,21.8 M263,21.8h-9c-0.6,0-1.1,0.5-1.2,1.2l-8.1,37.3c-0.1,0.7-0.3,1-0.9,1
	c-0.6,0-0.8-0.3-0.9-1l-8.1-37.3c-0.1-0.6-0.6-1.2-1.3-1.2h-9c-0.6,0-1.2,0.5-1.2,1c0,0.1,0.1,0.2,0.1,0.3l9.6,40.1
	c1.5,6.2,6.3,7.2,10.7,7.2c4.5,0,9.2-1,10.7-7.2l9.6-40.1c0-0.1,0.1-0.3,0.1-0.3C264.1,22.2,263.6,21.8,263,21.8 M291.1,43.1
	l-8.3-4.5c-3.5-1.9-4.3-2.7-4.3-4.5c0-2.3,1.4-3.4,5-3.4c4.4,0,11.9,0.6,13.7,0.7h0.1c0.8,0,1.1-0.5,1.1-1.1v-6.5c0-0.7-0.5-1-1-1.2
	c-2.5-0.6-9-1.4-13.7-1.4c-12.5,0-16.5,5.5-16.5,12.6c0,4.7,1.6,8.8,7.6,12.3l8.9,5.3c3.4,2,4.3,3,4.3,4.9c0,3.1-1.3,4.5-5.8,4.5
	c-2.5,0-9.6-0.5-12.3-0.8h-0.2c-0.6,0-1.2,0.3-1.2,1.2v6.3c0,0.7,0.6,1.1,1.3,1.3c3.3,0.8,7.1,1.4,12.2,1.4
	c13.1,0,17.6-7.3,17.6-14.2C299.9,51,297.9,46.7,291.1,43.1"/>
</svg>
